<?xml version="1.0" encoding="UTF-8"?>
<svg width="133px" height="133px" viewBox="0 0 133 133" version="1.1" xmlns="http://www.w3.org/2000/svg" xmlns:xlink="http://www.w3.org/1999/xlink">
    <!-- Generator: Sketch 63.1 (92452) - https://sketch.com -->
    <title>Group</title>
    <desc>Created with Sketch.</desc>
    <g id="Page-1" stroke="none" stroke-width="1" fill="none" fill-rule="evenodd">
        <g id="Group" transform="translate(1.000000, 1.000000)">
            <path d="M68.1598174,101 C71.4414003,101 74.6225266,100.566667 77.7031963,99.7 C80.7838661,98.8333333 83.6468798,97.6 86.2922374,96 C88.9375951,94.4 91.3318113,92.4833333 93.4748858,90.25 C95.6179604,88.0166667 97.4596651,85.5333333 99,82.8 L99,82.8 L99,60.6 L73.1826484,60.6 L73.1826484,74.6 L79.2100457,74.6 C77.870624,76.2666667 76.2633181,77.5833333 74.3881279,78.55 C72.5129376,79.5166667 70.4368341,80 68.1598174,80 C66.217656,80 64.3926941,79.65 62.6849315,78.95 C60.9771689,78.25 59.4870624,77.2833333 58.2146119,76.05 C56.9421613,74.8166667 55.9375951,73.3333333 55.2009132,71.6 C54.4642314,69.8666667 54.0958904,68 54.0958904,66 C54.0958904,64 54.4307458,62.1333333 55.1004566,60.4 C55.7701674,58.6666667 56.6910198,57.1833333 57.8630137,55.95 C59.0350076,54.7166667 60.4246575,53.75 62.0319635,53.05 C63.6392694,52.35 65.414003,52 67.3561644,52 C69.0974125,52 70.8721461,52.2833333 72.6803653,52.85 C74.4885845,53.4166667 75.9954338,54.2333333 77.2009132,55.3 L77.2009132,55.3 L89.3561644,38.1 C87.8828006,36.8333333 86.0410959,35.6666667 83.8310502,34.6 C81.95586,33.6666667 79.6453577,32.8333333 76.8995434,32.1 C74.1537291,31.3666667 70.9056317,31 67.1552511,31 C62.3333333,31 57.8295282,31.9166667 53.6438356,33.75 C49.4581431,35.5833333 45.8417047,38.0833333 42.7945205,41.25 C39.7473364,44.4166667 37.3531202,48.1333333 35.6118721,52.4 C33.870624,56.6666667 33,61.2 33,66 C33,70.9333333 33.9208524,75.5333333 35.7625571,79.8 C37.6042618,84.0666667 40.1156773,87.7666667 43.2968037,90.9 C46.47793,94.0333333 50.2115677,96.5 54.4977169,98.3 C58.7838661,100.1 63.3378995,101 68.1598174,101 Z M66.920175,92.5151515 C63.4138874,92.5151515 60.122608,91.8854167 57.0463368,90.625947 C53.9700656,89.3664773 51.2741935,87.6264205 48.9587206,85.4057765 C46.6432477,83.1851326 44.8239475,80.5170455 43.5008201,77.4015152 C42.1776927,74.2859848 41.516129,70.8390152 41.516129,67.0606061 C41.516129,63.282197 42.1611536,59.8352273 43.4512028,56.719697 C44.7412521,53.6041667 46.5109349,50.9360795 48.7602515,48.7154356 C51.0095681,46.4947917 53.6558229,44.7547348 56.6990159,43.4952652 C59.7422089,42.2357955 63.0169492,41.6060606 66.5232367,41.6060606 C68.0448332,41.6060606 69.434117,41.7054924 70.691088,41.9043561 C71.948059,42.1032197 73.0396391,42.3352273 73.9658283,42.6003788 C75.0243302,42.8655303 75.9835976,43.1969697 76.8436304,43.594697 L76.8436304,43.594697 L75.2558775,45.8816288 C74.4620011,45.6164773 73.6019683,45.3513258 72.6757791,45.0861742 C71.8819027,44.8873106 70.9557135,44.688447 69.8972116,44.4895833 C68.8387097,44.2907197 67.7140514,44.1912879 66.5232367,44.1912879 C63.347731,44.1912879 60.4037726,44.7381629 57.6913614,45.8319129 C54.9789502,46.9256629 52.61386,48.483428 50.5960908,50.5052083 C48.5783215,52.5269886 46.9905686,54.9464962 45.8328321,57.7637311 C44.6750957,60.5809659 44.0962274,63.6799242 44.0962274,67.0606061 C44.0962274,70.4412879 44.6916348,73.5402462 45.8824494,76.3574811 C47.0732641,79.1747159 48.7106342,81.5942235 50.7945599,83.6160038 C52.8784855,85.6377841 55.293193,87.1955492 58.0386823,88.2892992 C60.7841717,89.3830492 63.7446692,89.9299242 66.920175,89.9299242 C70.8895571,89.9299242 74.5116184,89.0350379 77.7863587,87.2452652 C81.061099,85.4554924 83.7238928,83.0359848 85.7747403,79.9867424 L85.7747403,79.9867424 L85.7747403,70.0435606 L77.8359759,70.0435606 L77.8359759,67.657197 L88.3548387,67.657197 L88.3548387,80.6827652 C86.0393658,84.2623106 83.029251,87.1292614 79.3244943,89.2836174 C75.6197376,91.4379735 71.4849645,92.5151515 66.920175,92.5151515 Z" id="GOUCHO" fill="#FFFFFF" fill-rule="nonzero"></path>
            <rect id="Rectangle" stroke="#FFFFFF" x="0" y="0" width="131" height="131"></rect>
        </g>
    </g>
</svg>