<?xml version="1.0" encoding="UTF-8"?>
<svg width="212px" height="64px" viewBox="0 0 212 64" version="1.1" xmlns="http://www.w3.org/2000/svg" xmlns:xlink="http://www.w3.org/1999/xlink">
    <!-- Generator: Sketch 63.1 (92452) - https://sketch.com -->
    <title>Group 2</title>
    <desc>Created with Sketch.</desc>
    <g id="Page-1" stroke="none" stroke-width="1" fill="none" fill-rule="evenodd">
        <g id="Desktop-Copy" transform="translate(-104.000000, -15.000000)">
            <g id="Group-2" transform="translate(105.000000, 16.000000)">
                <path d="M36.36,41.476 C37.2746667,41.476 38.1613333,41.3546667 39.02,41.112 C39.8786667,40.8693333 40.6766667,40.524 41.414,40.076 C42.1513333,39.628 42.8186667,39.0913333 43.416,38.466 C44.0133333,37.8406667 44.5266667,37.1453333 44.956,36.38 L44.956,36.38 L44.956,30.164 L37.76,30.164 L37.76,34.084 L39.44,34.084 C39.0666667,34.5506667 38.6186667,34.9193333 38.096,35.19 C37.5733333,35.4606667 36.9946667,35.596 36.36,35.596 C35.8186667,35.596 35.31,35.498 34.834,35.302 C34.358,35.106 33.9426667,34.8353333 33.588,34.49 C33.2333333,34.1446667 32.9533333,33.7293333 32.748,33.244 C32.5426667,32.7586667 32.44,32.236 32.44,31.676 C32.44,31.116 32.5333333,30.5933333 32.72,30.108 C32.9066667,29.6226667 33.1633333,29.2073333 33.49,28.862 C33.8166667,28.5166667 34.204,28.246 34.652,28.05 C35.1,27.854 35.5946667,27.756 36.136,27.756 C36.6213333,27.756 37.116,27.8353333 37.62,27.994 C38.124,28.1526667 38.544,28.3813333 38.88,28.68 L38.88,28.68 L42.268,23.864 C41.8573333,23.5093333 41.344,23.1826667 40.728,22.884 C40.2053333,22.6226667 39.5613333,22.3893333 38.796,22.184 C38.0306667,21.9786667 37.1253333,21.876 36.08,21.876 C34.736,21.876 33.4806667,22.1326667 32.314,22.646 C31.1473333,23.1593333 30.1393333,23.8593333 29.29,24.746 C28.4406667,25.6326667 27.7733333,26.6733333 27.288,27.868 C26.8026667,29.0626667 26.56,30.332 26.56,31.676 C26.56,33.0573333 26.8166667,34.3453333 27.33,35.54 C27.8433333,36.7346667 28.5433333,37.7706667 29.43,38.648 C30.3166667,39.5253333 31.3573333,40.216 32.552,40.72 C33.7466667,41.224 35.016,41.476 36.36,41.476 Z M36.36,38.844 C35.3706667,38.844 34.442,38.6666667 33.574,38.312 C32.706,37.9573333 31.9453333,37.4673333 31.292,36.842 C30.6386667,36.2166667 30.1253333,35.4653333 29.752,34.588 C29.3786667,33.7106667 29.192,32.74 29.192,31.676 C29.192,30.612 29.374,29.6413333 29.738,28.764 C30.102,27.8866667 30.6013333,27.1353333 31.236,26.51 C31.8706667,25.8846667 32.6173333,25.3946667 33.476,25.04 C34.3346667,24.6853333 35.2586667,24.508 36.248,24.508 C36.6773333,24.508 37.0693333,24.536 37.424,24.592 C37.7786667,24.648 38.0866667,24.7133333 38.348,24.788 C38.6466667,24.8626667 38.9173333,24.956 39.16,25.068 L39.16,25.068 L38.712,25.712 C38.488,25.6373333 38.2453333,25.5626667 37.984,25.488 C37.76,25.432 37.4986667,25.376 37.2,25.32 C36.9013333,25.264 36.584,25.236 36.248,25.236 C35.352,25.236 34.5213333,25.39 33.756,25.698 C32.9906667,26.006 32.3233333,26.4446667 31.754,27.014 C31.1846667,27.5833333 30.7366667,28.2646667 30.41,29.058 C30.0833333,29.8513333 29.92,30.724 29.92,31.676 C29.92,32.628 30.088,33.5006667 30.424,34.294 C30.76,35.0873333 31.222,35.7686667 31.81,36.338 C32.398,36.9073333 33.0793333,37.346 33.854,37.654 C34.6286667,37.962 35.464,38.116 36.36,38.116 C37.48,38.116 38.502,37.864 39.426,37.36 C40.35,36.856 41.1013333,36.1746667 41.68,35.316 L41.68,35.316 L41.68,32.516 L39.44,32.516 L39.44,31.844 L42.408,31.844 L42.408,35.512 C41.7546667,36.52 40.9053333,37.3273333 39.86,37.934 C38.8146667,38.5406667 37.648,38.844 36.36,38.844 Z M65.2093333,41.476 C66.5533333,41.476 67.8226667,41.2193333 69.0173333,40.706 C70.212,40.1926667 71.2526667,39.4926667 72.1393333,38.606 C73.026,37.7193333 73.726,36.6786667 74.2393333,35.484 C74.7526667,34.2893333 75.0093333,33.02 75.0093333,31.676 C75.0093333,30.332 74.7526667,29.0626667 74.2393333,27.868 C73.726,26.6733333 73.026,25.6326667 72.1393333,24.746 C71.2526667,23.8593333 70.212,23.1593333 69.0173333,22.646 C67.8226667,22.1326667 66.5533333,21.876 65.2093333,21.876 C63.8653333,21.876 62.596,22.1326667 61.4013333,22.646 C60.2066667,23.1593333 59.166,23.8593333 58.2793333,24.746 C57.3926667,25.6326667 56.6926667,26.6733333 56.1793333,27.868 C55.666,29.0626667 55.4093333,30.332 55.4093333,31.676 C55.4093333,33.02 55.666,34.2893333 56.1793333,35.484 C56.6926667,36.6786667 57.3926667,37.7193333 58.2793333,38.606 C59.166,39.4926667 60.2066667,40.1926667 61.4013333,40.706 C62.596,41.2193333 63.8653333,41.476 65.2093333,41.476 Z M65.2093333,38.844 C64.22,38.844 63.2913333,38.6573333 62.4233333,38.284 C61.5553333,37.9106667 60.7946667,37.3973333 60.1413333,36.744 C59.488,36.0906667 58.9746667,35.33 58.6013333,34.462 C58.228,33.594 58.0413333,32.6653333 58.0413333,31.676 C58.0413333,30.6866667 58.228,29.758 58.6013333,28.89 C58.9746667,28.022 59.488,27.2613333 60.1413333,26.608 C60.7946667,25.9546667 61.5553333,25.4413333 62.4233333,25.068 C63.2913333,24.6946667 64.22,24.508 65.2093333,24.508 C66.1986667,24.508 67.1273333,24.6946667 67.9953333,25.068 C68.8633333,25.4413333 69.624,25.9546667 70.2773333,26.608 C70.9306667,27.2613333 71.444,28.022 71.8173333,28.89 C72.1906667,29.758 72.3773333,30.6866667 72.3773333,31.676 C72.3773333,32.6653333 72.1906667,33.594 71.8173333,34.462 C71.444,35.33 70.9306667,36.0906667 70.2773333,36.744 C69.624,37.3973333 68.8633333,37.9106667 67.9953333,38.284 C67.1273333,38.6573333 66.1986667,38.844 65.2093333,38.844 Z M65.2093333,38.116 C66.1053333,38.116 66.9406667,37.948 67.7153333,37.612 C68.49,37.276 69.1713333,36.814 69.7593333,36.226 C70.3473333,35.638 70.8093333,34.9566667 71.1453333,34.182 C71.4813333,33.4073333 71.6493333,32.572 71.6493333,31.676 C71.6493333,30.78 71.4813333,29.9446667 71.1453333,29.17 C70.8093333,28.3953333 70.3473333,27.714 69.7593333,27.126 C69.1713333,26.538 68.49,26.076 67.7153333,25.74 C66.9406667,25.404 66.1053333,25.236 65.2093333,25.236 C64.3133333,25.236 63.478,25.404 62.7033333,25.74 C61.9286667,26.076 61.2473333,26.538 60.6593333,27.126 C60.0713333,27.714 59.6093333,28.3953333 59.2733333,29.17 C58.9373333,29.9446667 58.7693333,30.78 58.7693333,31.676 C58.7693333,32.572 58.9373333,33.4073333 59.2733333,34.182 C59.6093333,34.9566667 60.0713333,35.638 60.6593333,36.226 C61.2473333,36.814 61.9286667,37.276 62.7033333,37.612 C63.478,37.948 64.3133333,38.116 65.2093333,38.116 Z M65.2093333,35.596 C64.668,35.596 64.1593333,35.4933333 63.6833333,35.288 C63.2073333,35.0826667 62.792,34.8026667 62.4373333,34.448 C62.0826667,34.0933333 61.8026667,33.678 61.5973333,33.202 C61.392,32.726 61.2893333,32.2173333 61.2893333,31.676 C61.2893333,31.1346667 61.392,30.626 61.5973333,30.15 C61.8026667,29.674 62.0826667,29.2586667 62.4373333,28.904 C62.792,28.5493333 63.2073333,28.2693333 63.6833333,28.064 C64.1593333,27.8586667 64.668,27.756 65.2093333,27.756 C65.7506667,27.756 66.2593333,27.8586667 66.7353333,28.064 C67.2113333,28.2693333 67.6266667,28.5493333 67.9813333,28.904 C68.336,29.2586667 68.616,29.674 68.8213333,30.15 C69.0266667,30.626 69.1293333,31.1346667 69.1293333,31.676 C69.1293333,32.2173333 69.0266667,32.726 68.8213333,33.202 C68.616,33.678 68.336,34.0933333 67.9813333,34.448 C67.6266667,34.8026667 67.2113333,35.0826667 66.7353333,35.288 C66.2593333,35.4933333 65.7506667,35.596 65.2093333,35.596 Z M93.5266667,41.476 C94.7026667,41.476 95.7666667,41.3266667 96.7186667,41.028 C97.6706667,40.7293333 98.4873333,40.2813333 99.1686667,39.684 C99.85,39.0866667 100.372667,38.3306667 100.736667,37.416 C101.100667,36.5013333 101.282667,35.428 101.282667,34.196 L101.282667,34.196 L101.282667,22.324 L95.2906667,22.324 L95.2906667,33.944 C95.2906667,34.5973333 95.1553333,35.0966667 94.8846667,35.442 C94.614,35.7873333 94.1613333,35.96 93.5266667,35.96 C92.892,35.96 92.4393333,35.7873333 92.1686667,35.442 C91.898,35.0966667 91.7626667,34.5973333 91.7626667,33.944 L91.7626667,33.944 L91.7626667,22.324 L85.7986667,22.324 L85.7986667,34.196 C85.7986667,35.428 85.9806667,36.5013333 86.3446667,37.416 C86.7086667,38.3306667 87.2266667,39.0866667 87.8986667,39.684 C88.5706667,40.2813333 89.3826667,40.7293333 90.3346667,41.028 C91.2866667,41.3266667 92.3506667,41.476 93.5266667,41.476 Z M93.5266667,38.844 C91.94,38.844 90.722,38.4286667 89.8726667,37.598 C89.0233333,36.7673333 88.5986667,35.568 88.5986667,34 L88.5986667,34 L88.5986667,24.564 L89.3266667,24.564 L89.3266667,34 C89.3266667,36.744 90.7266667,38.116 93.5266667,38.116 C96.3266667,38.116 97.7266667,36.744 97.7266667,34 L97.7266667,34 L97.7266667,24.564 L98.4826667,24.564 L98.4826667,34 C98.4826667,35.568 98.0533333,36.7673333 97.1946667,37.598 C96.336,38.4286667 95.1133333,38.844 93.5266667,38.844 Z M122.152,41.476 C123.234667,41.476 124.196,41.364 125.036,41.14 C125.876,40.916 126.594667,40.6733333 127.192,40.412 C127.882667,40.0946667 128.48,39.7306667 128.984,39.32 L128.984,39.32 L126.044,34.14 C125.764,34.42 125.437333,34.6626667 125.064,34.868 C124.746667,35.0546667 124.354667,35.2226667 123.888,35.372 C123.421333,35.5213333 122.889333,35.596 122.292,35.596 C121.694667,35.596 121.144,35.4933333 120.64,35.288 C120.136,35.0826667 119.697333,34.8026667 119.324,34.448 C118.950667,34.0933333 118.656667,33.678 118.442,33.202 C118.227333,32.726 118.12,32.2173333 118.12,31.676 C118.12,31.1346667 118.222667,30.626 118.428,30.15 C118.633333,29.674 118.918,29.2586667 119.282,28.904 C119.646,28.5493333 120.070667,28.2693333 120.556,28.064 C121.041333,27.8586667 121.573333,27.756 122.152,27.756 C122.712,27.756 123.211333,27.826 123.65,27.966 C124.088667,28.106 124.466667,28.2506667 124.784,28.4 C125.138667,28.6053333 125.465333,28.82 125.764,29.044 L125.764,29.044 L128.704,23.864 C128.2,23.5093333 127.602667,23.1826667 126.912,22.884 C126.314667,22.6226667 125.600667,22.3893333 124.77,22.184 C123.939333,21.9786667 122.992,21.876 121.928,21.876 C120.584,21.876 119.314667,22.1046667 118.12,22.562 C116.925333,23.0193333 115.88,23.6773333 114.984,24.536 C114.088,25.3946667 113.378667,26.426 112.856,27.63 C112.333333,28.834 112.072,30.1826667 112.072,31.676 C112.072,33.132 112.324,34.462 112.828,35.666 C113.332,36.87 114.032,37.9013333 114.928,38.76 C115.824,39.6186667 116.888,40.286 118.12,40.762 C119.352,41.238 120.696,41.476 122.152,41.476 Z M122.236,38.844 C121.228,38.844 120.276,38.676 119.38,38.34 C118.484,38.004 117.7,37.5233333 117.028,36.898 C116.356,36.2726667 115.828667,35.5213333 115.446,34.644 C115.063333,33.7666667 114.872,32.7773333 114.872,31.676 C114.872,30.5933333 115.072667,29.6086667 115.474,28.722 C115.875333,27.8353333 116.407333,27.0793333 117.07,26.454 C117.732667,25.8286667 118.498,25.348 119.366,25.012 C120.234,24.676 121.144,24.508 122.096,24.508 C122.637333,24.508 123.113333,24.5453333 123.524,24.62 C123.934667,24.6946667 124.298667,24.7786667 124.616,24.872 C124.952,24.984 125.269333,25.1053333 125.568,25.236 L125.568,25.236 L125.176,25.908 C124.952,25.7773333 124.681333,25.6653333 124.364,25.572 C124.102667,25.4786667 123.780667,25.3993333 123.398,25.334 C123.015333,25.2686667 122.581333,25.236 122.096,25.236 C121.106667,25.236 120.210667,25.404 119.408,25.74 C118.605333,26.076 117.924,26.5333333 117.364,27.112 C116.804,27.6906667 116.37,28.372 116.062,29.156 C115.754,29.94 115.6,30.78 115.6,31.676 C115.6,32.572 115.754,33.412 116.062,34.196 C116.37,34.98 116.808667,35.6613333 117.378,36.24 C117.947333,36.8186667 118.642667,37.276 119.464,37.612 C120.285333,37.948 121.209333,38.116 122.236,38.116 C122.758667,38.116 123.216,38.074 123.608,37.99 C124,37.906 124.336,37.808 124.616,37.696 C124.933333,37.584 125.213333,37.444 125.456,37.276 L125.456,37.276 L125.848,37.948 C125.568,38.116 125.250667,38.2653333 124.896,38.396 C124.578667,38.508 124.196,38.6106667 123.748,38.704 C123.3,38.7973333 122.796,38.844 122.236,38.844 Z M144.981333,41 L144.981333,34.084 L148.313333,34.084 L148.313333,41 L154.305333,41 L154.305333,22.324 L148.313333,22.324 L148.313333,28.68 L144.981333,28.68 L144.981333,22.324 L139.017333,22.324 L139.017333,41 L144.981333,41 Z M142.545333,38.76 L141.817333,38.76 L141.817333,24.564 L142.545333,24.564 L142.545333,31.004 L150.777333,31.004 L150.777333,24.564 L151.505333,24.564 L151.505333,38.76 L150.777333,38.76 L150.777333,31.676 L142.545333,31.676 L142.545333,38.76 Z M174.978667,41.476 C176.322667,41.476 177.592,41.2193333 178.786667,40.706 C179.981333,40.1926667 181.022,39.4926667 181.908667,38.606 C182.795333,37.7193333 183.495333,36.6786667 184.008667,35.484 C184.522,34.2893333 184.778667,33.02 184.778667,31.676 C184.778667,30.332 184.522,29.0626667 184.008667,27.868 C183.495333,26.6733333 182.795333,25.6326667 181.908667,24.746 C181.022,23.8593333 179.981333,23.1593333 178.786667,22.646 C177.592,22.1326667 176.322667,21.876 174.978667,21.876 C173.634667,21.876 172.365333,22.1326667 171.170667,22.646 C169.976,23.1593333 168.935333,23.8593333 168.048667,24.746 C167.162,25.6326667 166.462,26.6733333 165.948667,27.868 C165.435333,29.0626667 165.178667,30.332 165.178667,31.676 C165.178667,33.02 165.435333,34.2893333 165.948667,35.484 C166.462,36.6786667 167.162,37.7193333 168.048667,38.606 C168.935333,39.4926667 169.976,40.1926667 171.170667,40.706 C172.365333,41.2193333 173.634667,41.476 174.978667,41.476 Z M174.978667,38.844 C173.989333,38.844 173.060667,38.6573333 172.192667,38.284 C171.324667,37.9106667 170.564,37.3973333 169.910667,36.744 C169.257333,36.0906667 168.744,35.33 168.370667,34.462 C167.997333,33.594 167.810667,32.6653333 167.810667,31.676 C167.810667,30.6866667 167.997333,29.758 168.370667,28.89 C168.744,28.022 169.257333,27.2613333 169.910667,26.608 C170.564,25.9546667 171.324667,25.4413333 172.192667,25.068 C173.060667,24.6946667 173.989333,24.508 174.978667,24.508 C175.968,24.508 176.896667,24.6946667 177.764667,25.068 C178.632667,25.4413333 179.393333,25.9546667 180.046667,26.608 C180.7,27.2613333 181.213333,28.022 181.586667,28.89 C181.96,29.758 182.146667,30.6866667 182.146667,31.676 C182.146667,32.6653333 181.96,33.594 181.586667,34.462 C181.213333,35.33 180.7,36.0906667 180.046667,36.744 C179.393333,37.3973333 178.632667,37.9106667 177.764667,38.284 C176.896667,38.6573333 175.968,38.844 174.978667,38.844 Z M174.978667,38.116 C175.874667,38.116 176.71,37.948 177.484667,37.612 C178.259333,37.276 178.940667,36.814 179.528667,36.226 C180.116667,35.638 180.578667,34.9566667 180.914667,34.182 C181.250667,33.4073333 181.418667,32.572 181.418667,31.676 C181.418667,30.78 181.250667,29.9446667 180.914667,29.17 C180.578667,28.3953333 180.116667,27.714 179.528667,27.126 C178.940667,26.538 178.259333,26.076 177.484667,25.74 C176.71,25.404 175.874667,25.236 174.978667,25.236 C174.082667,25.236 173.247333,25.404 172.472667,25.74 C171.698,26.076 171.016667,26.538 170.428667,27.126 C169.840667,27.714 169.378667,28.3953333 169.042667,29.17 C168.706667,29.9446667 168.538667,30.78 168.538667,31.676 C168.538667,32.572 168.706667,33.4073333 169.042667,34.182 C169.378667,34.9566667 169.840667,35.638 170.428667,36.226 C171.016667,36.814 171.698,37.276 172.472667,37.612 C173.247333,37.948 174.082667,38.116 174.978667,38.116 Z M174.978667,35.596 C174.437333,35.596 173.928667,35.4933333 173.452667,35.288 C172.976667,35.0826667 172.561333,34.8026667 172.206667,34.448 C171.852,34.0933333 171.572,33.678 171.366667,33.202 C171.161333,32.726 171.058667,32.2173333 171.058667,31.676 C171.058667,31.1346667 171.161333,30.626 171.366667,30.15 C171.572,29.674 171.852,29.2586667 172.206667,28.904 C172.561333,28.5493333 172.976667,28.2693333 173.452667,28.064 C173.928667,27.8586667 174.437333,27.756 174.978667,27.756 C175.52,27.756 176.028667,27.8586667 176.504667,28.064 C176.980667,28.2693333 177.396,28.5493333 177.750667,28.904 C178.105333,29.2586667 178.385333,29.674 178.590667,30.15 C178.796,30.626 178.898667,31.1346667 178.898667,31.676 C178.898667,32.2173333 178.796,32.726 178.590667,33.202 C178.385333,33.678 178.105333,34.0933333 177.750667,34.448 C177.396,34.8026667 176.980667,35.0826667 176.504667,35.288 C176.028667,35.4933333 175.52,35.596 174.978667,35.596 Z" id="GOUCHO" fill="#FFFFFF" fill-rule="nonzero"></path>
                <rect id="Rectangle" stroke="#FFFFFF" x="0" y="0" width="210" height="62"></rect>
            </g>
        </g>
    </g>
</svg>